<svg width="60" height="60" viewBox="0 0 60 60" fill="none" xmlns="http://www.w3.org/2000/svg">
<line x1="5" y1="46.5" x2="12" y2="46.5" stroke="#9333EA"/>
<line x1="8.5" y1="43" x2="8.5" y2="50" stroke="#9333EA"/>
<line x1="47" y1="11.5" x2="58" y2="11.5" stroke="#9333EA"/>
<line x1="52.5" y1="6" x2="52.5" y2="17" stroke="#9333EA"/>
<path d="M57.1939 25.9933L40.19 19.81L34.0067 2.80611C33.7076 1.98372 33.1626 1.2733 32.4458 0.771294C31.729 0.269283 30.8751 0 30 0C29.1249 0 28.271 0.269283 27.5542 0.771294C26.8374 1.2733 26.2925 1.98372 25.9933 2.80611L19.81 19.81L2.80611 25.9933C1.98372 26.2925 1.2733 26.8374 0.771294 27.5542C0.269283 28.271 0 29.1249 0 30C0 30.8751 0.269283 31.729 0.771294 32.4458C1.2733 33.1626 1.98372 33.7076 2.80611 34.0067L19.81 40.19L25.9933 57.1939C26.2925 58.0163 26.8374 58.7267 27.5542 59.2287C28.271 59.7307 29.1249 60 30 60C30.8751 60 31.729 59.7307 32.4458 59.2287C33.1626 58.7267 33.7076 58.0163 34.0067 57.1939L40.19 40.19L57.1939 34.0067C58.0163 33.7076 58.7267 33.1626 59.2287 32.4458C59.7307 31.729 60 30.8751 60 30C60 29.1249 59.7307 28.271 59.2287 27.5542C58.7267 26.8374 58.0163 26.2925 57.1939 25.9933ZM38.7334 36.1833C38.1474 36.3955 37.6153 36.7339 37.1746 37.1746C36.7339 37.6153 36.3955 38.1474 36.1833 38.7334V38.7329L29.9992 55.7346L23.8167 38.7334C23.6045 38.1475 23.2662 37.6154 22.8256 37.1747C22.385 36.7341 21.853 36.3956 21.2672 36.1833L4.26537 29.9992L21.2666 23.8167C21.8525 23.6045 22.3846 23.2662 22.8253 22.8256C23.2659 22.385 23.6044 21.853 23.8167 21.2672L30.0008 4.26538L36.1833 21.2666C36.3955 21.8525 36.7339 22.3846 37.1744 22.8253C37.615 23.2659 38.147 23.6044 38.7329 23.8167L55.7347 30.0008L38.7334 36.1833Z" fill="#9333EA"/>
</svg>
